<mxfile host="app.diagrams.net" modified="2023-06-19T06:20:42.680Z" agent="Mozilla/5.0 (Windows NT 10.0; Win64; x64) AppleWebKit/537.36 (KHTML, like Gecko) Chrome/114.0.0.0 Safari/537.36" etag="hGd7gINoyTuID5an2FPZ" version="21.5.0" type="github">
  <diagram id="C5RBs43oDa-KdzZeNtuy" name="Page-1">
    <mxGraphModel dx="1434" dy="802" grid="1" gridSize="10" guides="1" tooltips="1" connect="1" arrows="1" fold="1" page="1" pageScale="1" pageWidth="827" pageHeight="1169" math="0" shadow="0">
      <root>
        <mxCell id="WIyWlLk6GJQsqaUBKTNV-0" />
        <mxCell id="WIyWlLk6GJQsqaUBKTNV-1" parent="WIyWlLk6GJQsqaUBKTNV-0" />
        <mxCell id="0nLTzmDIZwb9rG5JgTCv-13" value="" style="edgeStyle=orthogonalEdgeStyle;rounded=0;orthogonalLoop=1;jettySize=auto;html=1;" edge="1" parent="WIyWlLk6GJQsqaUBKTNV-1" source="0nLTzmDIZwb9rG5JgTCv-0" target="0nLTzmDIZwb9rG5JgTCv-12">
          <mxGeometry relative="1" as="geometry" />
        </mxCell>
        <mxCell id="0nLTzmDIZwb9rG5JgTCv-0" value="Front React Js" style="rounded=0;whiteSpace=wrap;html=1;" vertex="1" parent="WIyWlLk6GJQsqaUBKTNV-1">
          <mxGeometry x="230" y="50" width="120" height="60" as="geometry" />
        </mxCell>
        <mxCell id="0nLTzmDIZwb9rG5JgTCv-5" value="" style="edgeStyle=orthogonalEdgeStyle;rounded=0;orthogonalLoop=1;jettySize=auto;html=1;" edge="1" parent="WIyWlLk6GJQsqaUBKTNV-1" source="0nLTzmDIZwb9rG5JgTCv-0" target="0nLTzmDIZwb9rG5JgTCv-4">
          <mxGeometry relative="1" as="geometry">
            <mxPoint x="290" y="110" as="sourcePoint" />
            <mxPoint x="260" y="340" as="targetPoint" />
            <Array as="points" />
          </mxGeometry>
        </mxCell>
        <mxCell id="0nLTzmDIZwb9rG5JgTCv-7" value="" style="edgeStyle=orthogonalEdgeStyle;rounded=0;orthogonalLoop=1;jettySize=auto;html=1;" edge="1" parent="WIyWlLk6GJQsqaUBKTNV-1" source="0nLTzmDIZwb9rG5JgTCv-4" target="0nLTzmDIZwb9rG5JgTCv-6">
          <mxGeometry relative="1" as="geometry" />
        </mxCell>
        <mxCell id="0nLTzmDIZwb9rG5JgTCv-11" value="" style="edgeStyle=orthogonalEdgeStyle;rounded=0;orthogonalLoop=1;jettySize=auto;html=1;entryX=0;entryY=0.5;entryDx=0;entryDy=0;" edge="1" parent="WIyWlLk6GJQsqaUBKTNV-1" source="0nLTzmDIZwb9rG5JgTCv-4" target="0nLTzmDIZwb9rG5JgTCv-10">
          <mxGeometry relative="1" as="geometry">
            <mxPoint x="510" y="250" as="targetPoint" />
          </mxGeometry>
        </mxCell>
        <mxCell id="0nLTzmDIZwb9rG5JgTCv-25" value="" style="edgeStyle=orthogonalEdgeStyle;rounded=0;orthogonalLoop=1;jettySize=auto;html=1;" edge="1" parent="WIyWlLk6GJQsqaUBKTNV-1" source="0nLTzmDIZwb9rG5JgTCv-4" target="0nLTzmDIZwb9rG5JgTCv-24">
          <mxGeometry relative="1" as="geometry" />
        </mxCell>
        <mxCell id="0nLTzmDIZwb9rG5JgTCv-4" value="BackEnd Asp.net core/ node js" style="rounded=0;whiteSpace=wrap;html=1;" vertex="1" parent="WIyWlLk6GJQsqaUBKTNV-1">
          <mxGeometry x="230" y="210" width="120" height="60" as="geometry" />
        </mxCell>
        <mxCell id="0nLTzmDIZwb9rG5JgTCv-18" value="" style="edgeStyle=orthogonalEdgeStyle;rounded=0;orthogonalLoop=1;jettySize=auto;html=1;" edge="1" parent="WIyWlLk6GJQsqaUBKTNV-1" source="0nLTzmDIZwb9rG5JgTCv-6" target="0nLTzmDIZwb9rG5JgTCv-17">
          <mxGeometry relative="1" as="geometry" />
        </mxCell>
        <mxCell id="0nLTzmDIZwb9rG5JgTCv-6" value="Banco Mysql / sql Server&lt;br&gt;" style="whiteSpace=wrap;html=1;rounded=0;" vertex="1" parent="WIyWlLk6GJQsqaUBKTNV-1">
          <mxGeometry x="230" y="470" width="120" height="60" as="geometry" />
        </mxCell>
        <mxCell id="0nLTzmDIZwb9rG5JgTCv-10" value="Integração com pix&lt;br&gt;" style="whiteSpace=wrap;html=1;rounded=0;" vertex="1" parent="WIyWlLk6GJQsqaUBKTNV-1">
          <mxGeometry x="440" y="210" width="120" height="60" as="geometry" />
        </mxCell>
        <mxCell id="0nLTzmDIZwb9rG5JgTCv-12" value="Login&lt;br&gt;" style="whiteSpace=wrap;html=1;rounded=0;" vertex="1" parent="WIyWlLk6GJQsqaUBKTNV-1">
          <mxGeometry x="430" y="50" width="120" height="60" as="geometry" />
        </mxCell>
        <mxCell id="0nLTzmDIZwb9rG5JgTCv-17" value="Criptografia&lt;br&gt;" style="whiteSpace=wrap;html=1;rounded=0;" vertex="1" parent="WIyWlLk6GJQsqaUBKTNV-1">
          <mxGeometry x="450" y="470" width="120" height="60" as="geometry" />
        </mxCell>
        <mxCell id="0nLTzmDIZwb9rG5JgTCv-24" value="Login&lt;br&gt;" style="whiteSpace=wrap;html=1;rounded=0;" vertex="1" parent="WIyWlLk6GJQsqaUBKTNV-1">
          <mxGeometry x="50" y="210" width="120" height="60" as="geometry" />
        </mxCell>
      </root>
    </mxGraphModel>
  </diagram>
</mxfile>
